<?xml version="1.0" standalone="no"?><!DOCTYPE svg PUBLIC "-//W3C//DTD SVG 1.1//EN" "http://www.w3.org/Graphics/SVG/1.1/DTD/svg11.dtd"><svg t="1521303467929" class="icon" style="" viewBox="0 0 1024 1024" version="1.1" xmlns="http://www.w3.org/2000/svg" p-id="1391" xmlns:xlink="http://www.w3.org/1999/xlink" width="200" height="200"><defs><style type="text/css"></style></defs><path d="M417.72032 176.800427l-2.020693 66.020693L149.592747 242.82112l0 50.52416 269.47584 0 0 87.579307L196.75136 380.924587l0 47.834453 225.682773-2.024107 226.358613-2.020693-4.041387 16.16896c-10.10688 39.07584-53.224107 143.496533-61.30688 146.86208-4.717227 1.348267-37.727573-6.06208-74.779307-16.8448-112.50688-34.3552-168.424107-44.46208-244.548267-44.46208-77.47584 0.672427-128 14.824107-176.50688 49.179307-94.313813 67.36896-101.72416 199.41376-14.144853 272.8448 92.965547 78.148267 245.220693 85.5552 383.32416 18.189653 49.179307-23.579307 137.43104-87.579307 167.072427-120.589653l12.127573-14.15168 38.4 18.865493c38.4 19.534507 275.53792 129.348267 315.958613 146.189653l21.5552 9.43104 0-173.13792-58.610347-15.49312c-53.220693-14.15168-189.30688-56.589653-233.096533-73.437867l-16.8448-6.734507 22.234453-45.810347c23.579307-47.1552 70.73792-180.548267 70.73792-200.086187 0-9.43104-13.47584-10.779307-117.896533-10.779307l-117.89312 0L560.534187 293.34528l282.95168 0L843.485867 248.8832c0-2.020693-64-3.36896-141.47584-2.69312l-141.472427 0.672427L560.5376 111.45216l-140.8 0L417.72032 176.800427zM391.44448 616.0384c35.034453 12.130987 81.517227 30.993067 103.07584 42.4448l39.072427 20.886187-21.558613 26.944853c-12.12416 14.820693-39.744853 40.420693-62.651733 57.265493-76.8 57.258667-148.210347 79.49312-239.83104 74.103467-95.66208-5.389653-146.86208-44.46208-152.927573-117.220693-4.041387-45.13792 6.065493-70.73792 37.055147-94.317227 39.072427-29.6448 70.734507-36.375893 156.965547-34.3552C316.668587 593.810773 337.55136 597.85216 391.44448 616.0384L391.44448 616.0384z" p-id="1392"></path></svg>