<?xml version="1.0" standalone="no"?><!DOCTYPE svg PUBLIC "-//W3C//DTD SVG 1.1//EN" "http://www.w3.org/Graphics/SVG/1.1/DTD/svg11.dtd"><svg t="1521304685294" class="icon" style="" viewBox="0 0 1024 1024" version="1.1" xmlns="http://www.w3.org/2000/svg" p-id="2878" xmlns:xlink="http://www.w3.org/1999/xlink" width="32" height="32"><defs><style type="text/css"></style></defs><path d="M848.444659 960.591855 175.552272 960.591855c-61.679781 0-112.144126-50.464345-112.144126-112.146173L63.408145 175.553295c0-61.679781 50.464345-112.14515 112.144126-112.14515l672.892387 0c61.680804 0 112.146173 50.465368 112.146173 112.14515l0 672.892387C960.590831 910.12751 910.125463 960.591855 848.444659 960.591855zM960.25621 664.934135c-62.546521-14.483876-182.356234-57.939597-296.443619-97.688903 24.704658-42.668799 45.25367-90.613764 60.074214-143.501298l2.805906-10.44591c2.812045-10.664897 3.296069-16.898879 3.192715-29.467125L550.45073 383.830899l0-51.266617 230.704382 0 0-38.451754L550.45073 294.112528l0-89.717348-76.901461 0 0 89.717348L242.844887 294.112528l0 38.451754 230.704382 0 0 51.266617L294.111504 383.830899l0 38.45073 327.256392-0.671289c-7.861038 40.536228-22.906709 81.297584-42.556235 116.66714-15.60542-5.16565-157.654646-46.933939-250.28944-46.933939-74.110905 0-197.068308 56.700373-197.068308 160.118767 0 101.961206 70.745251 159.340031 197.068308 159.340031 121.272018 0 210.540134-60.638055 282.739503-168.098509 137.442302 59.852156 265.11203 125.876895 348.995509 163.718759L960.257234 664.934135zM330.207607 749.043764c-62.543452 0-166.191066-21.337981-166.191066-97.582479 0.113587-66.363454 91.855034-100.045577 166.191066-100.045577 79.158874 0 138.897444 32.561603 200.428845 57.378825C465.850937 687.617763 400.946718 749.043764 330.207607 749.043764z" p-id="2879" fill="#515151"></path></svg>